<mxfile host="Electron" modified="2023-08-02T07:43:45.406Z" agent="Mozilla/5.0 (Windows NT 10.0; Win64; x64) AppleWebKit/537.36 (KHTML, like Gecko) draw.io/21.6.1 Chrome/112.0.5615.204 Electron/24.6.1 Safari/537.36" etag="sgv2O22AWaypFcmQgDLC" version="21.6.1" type="device">
  <diagram name="第 1 页" id="296-K8CtkIlCOGZinQ8Q">
    <mxGraphModel dx="4812" dy="2016" grid="1" gridSize="10" guides="1" tooltips="1" connect="1" arrows="1" fold="1" page="0" pageScale="1" pageWidth="827" pageHeight="1169" math="1" shadow="0">
      <root>
        <mxCell id="0" />
        <mxCell id="1" parent="0" />
        <mxCell id="WKKPIDza1_U7zghBaNiP-1" value="Perceptron" style="rounded=1;whiteSpace=wrap;html=1;fontSize=23;fontStyle=0" parent="1" vertex="1">
          <mxGeometry x="-1380" y="40" width="780" height="60" as="geometry" />
        </mxCell>
        <mxCell id="WKKPIDza1_U7zghBaNiP-10" style="edgeStyle=none;curved=1;rounded=0;orthogonalLoop=1;jettySize=auto;html=1;exitX=1;exitY=0.5;exitDx=0;exitDy=0;entryX=0;entryY=0.5;entryDx=0;entryDy=0;fontSize=12;startSize=8;endSize=8;" parent="1" source="WKKPIDza1_U7zghBaNiP-2" target="WKKPIDza1_U7zghBaNiP-6" edge="1">
          <mxGeometry relative="1" as="geometry" />
        </mxCell>
        <mxCell id="WKKPIDza1_U7zghBaNiP-2" value="1" style="ellipse;whiteSpace=wrap;html=1;aspect=fixed;fontSize=16;" parent="1" vertex="1">
          <mxGeometry x="-1380" y="220" width="40" height="40" as="geometry" />
        </mxCell>
        <mxCell id="WKKPIDza1_U7zghBaNiP-11" style="edgeStyle=none;curved=1;rounded=0;orthogonalLoop=1;jettySize=auto;html=1;exitX=1;exitY=0.5;exitDx=0;exitDy=0;entryX=0;entryY=0.5;entryDx=0;entryDy=0;fontSize=12;startSize=8;endSize=8;" parent="1" source="WKKPIDza1_U7zghBaNiP-3" target="WKKPIDza1_U7zghBaNiP-7" edge="1">
          <mxGeometry relative="1" as="geometry" />
        </mxCell>
        <mxCell id="WKKPIDza1_U7zghBaNiP-3" value="x&lt;sub&gt;1&lt;/sub&gt;" style="ellipse;whiteSpace=wrap;html=1;aspect=fixed;fontSize=16;" parent="1" vertex="1">
          <mxGeometry x="-1380" y="290" width="40" height="40" as="geometry" />
        </mxCell>
        <mxCell id="WKKPIDza1_U7zghBaNiP-12" style="edgeStyle=none;curved=1;rounded=0;orthogonalLoop=1;jettySize=auto;html=1;exitX=1;exitY=0.5;exitDx=0;exitDy=0;entryX=0;entryY=0.5;entryDx=0;entryDy=0;fontSize=12;startSize=8;endSize=8;" parent="1" source="WKKPIDza1_U7zghBaNiP-4" target="WKKPIDza1_U7zghBaNiP-8" edge="1">
          <mxGeometry relative="1" as="geometry" />
        </mxCell>
        <mxCell id="WKKPIDza1_U7zghBaNiP-4" value="x&lt;span style=&quot;font-size: 13.3333px;&quot;&gt;&lt;sub&gt;2&lt;/sub&gt;&lt;/span&gt;" style="ellipse;whiteSpace=wrap;html=1;aspect=fixed;fontSize=16;" parent="1" vertex="1">
          <mxGeometry x="-1380" y="360" width="40" height="40" as="geometry" />
        </mxCell>
        <mxCell id="WKKPIDza1_U7zghBaNiP-13" style="edgeStyle=none;curved=1;rounded=0;orthogonalLoop=1;jettySize=auto;html=1;exitX=1;exitY=0.5;exitDx=0;exitDy=0;entryX=0;entryY=0.5;entryDx=0;entryDy=0;fontSize=12;startSize=8;endSize=8;" parent="1" source="WKKPIDza1_U7zghBaNiP-5" target="WKKPIDza1_U7zghBaNiP-9" edge="1">
          <mxGeometry relative="1" as="geometry" />
        </mxCell>
        <mxCell id="WKKPIDza1_U7zghBaNiP-5" value="x&lt;span style=&quot;font-size: 13.3333px;&quot;&gt;&lt;sub&gt;m&lt;/sub&gt;&lt;/span&gt;" style="ellipse;whiteSpace=wrap;html=1;aspect=fixed;fontSize=16;" parent="1" vertex="1">
          <mxGeometry x="-1380" y="430" width="40" height="40" as="geometry" />
        </mxCell>
        <mxCell id="WKKPIDza1_U7zghBaNiP-21" style="edgeStyle=none;curved=1;rounded=0;orthogonalLoop=1;jettySize=auto;html=1;entryX=0;entryY=0.5;entryDx=0;entryDy=0;fontSize=12;startSize=8;endSize=8;endArrow=none;endFill=0;" parent="1" source="WKKPIDza1_U7zghBaNiP-6" target="WKKPIDza1_U7zghBaNiP-17" edge="1">
          <mxGeometry relative="1" as="geometry" />
        </mxCell>
        <mxCell id="WKKPIDza1_U7zghBaNiP-6" value="w&lt;sub&gt;0&lt;/sub&gt;" style="ellipse;whiteSpace=wrap;html=1;aspect=fixed;fontSize=16;" parent="1" vertex="1">
          <mxGeometry x="-1220" y="220" width="40" height="40" as="geometry" />
        </mxCell>
        <mxCell id="WKKPIDza1_U7zghBaNiP-22" style="edgeStyle=none;curved=1;rounded=0;orthogonalLoop=1;jettySize=auto;html=1;entryX=0;entryY=0.5;entryDx=0;entryDy=0;fontSize=12;startSize=8;endSize=8;endArrow=none;endFill=0;" parent="1" source="WKKPIDza1_U7zghBaNiP-7" target="WKKPIDza1_U7zghBaNiP-17" edge="1">
          <mxGeometry relative="1" as="geometry" />
        </mxCell>
        <mxCell id="WKKPIDza1_U7zghBaNiP-7" value="w&lt;sub&gt;2&lt;/sub&gt;" style="ellipse;whiteSpace=wrap;html=1;aspect=fixed;fontSize=16;" parent="1" vertex="1">
          <mxGeometry x="-1220" y="290" width="40" height="40" as="geometry" />
        </mxCell>
        <mxCell id="WKKPIDza1_U7zghBaNiP-23" style="edgeStyle=none;curved=1;rounded=0;orthogonalLoop=1;jettySize=auto;html=1;exitX=1;exitY=0.5;exitDx=0;exitDy=0;fontSize=12;startSize=8;endSize=8;endArrow=none;endFill=0;entryX=0;entryY=0.5;entryDx=0;entryDy=0;" parent="1" source="WKKPIDza1_U7zghBaNiP-8" target="WKKPIDza1_U7zghBaNiP-17" edge="1">
          <mxGeometry relative="1" as="geometry">
            <mxPoint x="-1040" y="340" as="targetPoint" />
          </mxGeometry>
        </mxCell>
        <mxCell id="WKKPIDza1_U7zghBaNiP-8" value="w&lt;sub&gt;2&lt;/sub&gt;" style="ellipse;whiteSpace=wrap;html=1;aspect=fixed;fontSize=16;" parent="1" vertex="1">
          <mxGeometry x="-1220" y="360" width="40" height="40" as="geometry" />
        </mxCell>
        <mxCell id="WKKPIDza1_U7zghBaNiP-24" style="edgeStyle=none;curved=1;rounded=0;orthogonalLoop=1;jettySize=auto;html=1;exitX=1;exitY=0.5;exitDx=0;exitDy=0;entryX=0;entryY=0.5;entryDx=0;entryDy=0;fontSize=12;startSize=8;endSize=8;endArrow=none;endFill=0;" parent="1" source="WKKPIDza1_U7zghBaNiP-9" target="WKKPIDza1_U7zghBaNiP-17" edge="1">
          <mxGeometry relative="1" as="geometry" />
        </mxCell>
        <mxCell id="WKKPIDza1_U7zghBaNiP-9" value="w&lt;span style=&quot;font-size: 11.1111px;&quot;&gt;m&lt;/span&gt;" style="ellipse;whiteSpace=wrap;html=1;aspect=fixed;fontSize=16;" parent="1" vertex="1">
          <mxGeometry x="-1220" y="430" width="40" height="40" as="geometry" />
        </mxCell>
        <mxCell id="WKKPIDza1_U7zghBaNiP-14" value="" style="endArrow=none;dashed=1;html=1;dashPattern=1 3;strokeWidth=2;rounded=0;fontSize=12;startSize=8;endSize=8;curved=1;" parent="1" edge="1">
          <mxGeometry width="50" height="50" relative="1" as="geometry">
            <mxPoint x="-1280" y="430" as="sourcePoint" />
            <mxPoint x="-1280" y="400" as="targetPoint" />
            <Array as="points">
              <mxPoint x="-1280" y="420" />
            </Array>
          </mxGeometry>
        </mxCell>
        <mxCell id="WKKPIDza1_U7zghBaNiP-15" value="Samples" style="text;html=1;strokeColor=none;fillColor=none;align=center;verticalAlign=middle;whiteSpace=wrap;rounded=0;fontSize=16;" parent="1" vertex="1">
          <mxGeometry x="-1390" y="510" width="60" height="30" as="geometry" />
        </mxCell>
        <mxCell id="WKKPIDza1_U7zghBaNiP-16" value="Weights&lt;br&gt;/Parameters" style="text;html=1;strokeColor=none;fillColor=none;align=center;verticalAlign=middle;whiteSpace=wrap;rounded=0;fontSize=16;" parent="1" vertex="1">
          <mxGeometry x="-1230" y="510" width="60" height="30" as="geometry" />
        </mxCell>
        <mxCell id="WKKPIDza1_U7zghBaNiP-26" style="edgeStyle=none;curved=1;rounded=0;orthogonalLoop=1;jettySize=auto;html=1;entryX=0;entryY=0.5;entryDx=0;entryDy=0;fontSize=12;startSize=8;endSize=8;endArrow=none;endFill=0;" parent="1" source="WKKPIDza1_U7zghBaNiP-17" target="WKKPIDza1_U7zghBaNiP-25" edge="1">
          <mxGeometry relative="1" as="geometry" />
        </mxCell>
        <mxCell id="WKKPIDza1_U7zghBaNiP-17" value="&lt;font style=&quot;font-size: 34px;&quot;&gt;Σ&lt;/font&gt;" style="ellipse;whiteSpace=wrap;html=1;aspect=fixed;fontSize=16;" parent="1" vertex="1">
          <mxGeometry x="-1040" y="310" width="80" height="80" as="geometry" />
        </mxCell>
        <mxCell id="WKKPIDza1_U7zghBaNiP-18" value="Net Input" style="text;html=1;strokeColor=none;fillColor=none;align=center;verticalAlign=middle;whiteSpace=wrap;rounded=0;fontSize=16;" parent="1" vertex="1">
          <mxGeometry x="-1030" y="410" width="60" height="30" as="geometry" />
        </mxCell>
        <mxCell id="WKKPIDza1_U7zghBaNiP-27" style="edgeStyle=none;curved=1;rounded=0;orthogonalLoop=1;jettySize=auto;html=1;fontSize=12;startSize=8;endSize=8;endArrow=blockThin;endFill=1;" parent="1" source="WKKPIDza1_U7zghBaNiP-25" edge="1">
          <mxGeometry relative="1" as="geometry">
            <mxPoint x="-650" y="350" as="targetPoint" />
          </mxGeometry>
        </mxCell>
        <mxCell id="WKKPIDza1_U7zghBaNiP-25" value="&lt;font style=&quot;font-size: 34px;&quot;&gt;θ&lt;/font&gt;" style="ellipse;whiteSpace=wrap;html=1;aspect=fixed;fontSize=16;" parent="1" vertex="1">
          <mxGeometry x="-850" y="310" width="80" height="80" as="geometry" />
        </mxCell>
        <mxCell id="WKKPIDza1_U7zghBaNiP-28" value="Output" style="text;strokeColor=none;fillColor=none;html=1;align=center;verticalAlign=middle;whiteSpace=wrap;rounded=0;fontSize=16;" parent="1" vertex="1">
          <mxGeometry x="-640" y="335" width="60" height="30" as="geometry" />
        </mxCell>
        <mxCell id="WKKPIDza1_U7zghBaNiP-33" style="edgeStyle=orthogonalEdgeStyle;rounded=0;orthogonalLoop=1;jettySize=auto;html=1;fontSize=12;startSize=8;endSize=8;endArrow=blockThin;endFill=1;" parent="1" source="WKKPIDza1_U7zghBaNiP-29" edge="1">
          <mxGeometry relative="1" as="geometry">
            <mxPoint x="-1200" y="210" as="targetPoint" />
            <Array as="points">
              <mxPoint x="-1200" y="160" />
            </Array>
          </mxGeometry>
        </mxCell>
        <mxCell id="WKKPIDza1_U7zghBaNiP-29" value="gradient:&amp;nbsp; `eta(y^i-haty^i)x_j^i`" style="rounded=0;whiteSpace=wrap;html=1;fontSize=16;strokeWidth=2;fillColor=#f8cecc;strokeColor=#b85450;" parent="1" vertex="1">
          <mxGeometry x="-1075" y="140" width="230" height="40" as="geometry" />
        </mxCell>
        <mxCell id="WKKPIDza1_U7zghBaNiP-32" value="" style="edgeStyle=segmentEdgeStyle;endArrow=none;html=1;curved=0;rounded=0;endSize=8;startSize=8;sourcePerimeterSpacing=0;targetPerimeterSpacing=0;fontSize=12;exitX=1;exitY=0.5;exitDx=0;exitDy=0;endFill=0;" parent="1" source="WKKPIDza1_U7zghBaNiP-29" edge="1">
          <mxGeometry width="140" relative="1" as="geometry">
            <mxPoint x="-850" y="220" as="sourcePoint" />
            <mxPoint x="-710" y="350" as="targetPoint" />
            <Array as="points">
              <mxPoint x="-710" y="160" />
            </Array>
          </mxGeometry>
        </mxCell>
        <mxCell id="WKKPIDza1_U7zghBaNiP-34" value="Update weights" style="text;html=1;strokeColor=none;fillColor=none;align=center;verticalAlign=middle;whiteSpace=wrap;rounded=0;fontSize=16;" parent="1" vertex="1">
          <mxGeometry x="-990" y="200" width="60" height="30" as="geometry" />
        </mxCell>
        <mxCell id="WKKPIDza1_U7zghBaNiP-35" value="Threshold&lt;br&gt;Function" style="text;html=1;strokeColor=none;fillColor=none;align=center;verticalAlign=middle;whiteSpace=wrap;rounded=0;fontSize=16;" parent="1" vertex="1">
          <mxGeometry x="-840" y="410" width="60" height="30" as="geometry" />
        </mxCell>
        <mxCell id="WKKPIDza1_U7zghBaNiP-36" value="Adaline - Adaptive linear Neuron" style="rounded=1;whiteSpace=wrap;html=1;fontSize=23;fontStyle=0" parent="1" vertex="1">
          <mxGeometry x="-435" y="40" width="955" height="60" as="geometry" />
        </mxCell>
        <mxCell id="WKKPIDza1_U7zghBaNiP-37" style="edgeStyle=none;curved=1;rounded=0;orthogonalLoop=1;jettySize=auto;html=1;exitX=1;exitY=0.5;exitDx=0;exitDy=0;entryX=0;entryY=0.5;entryDx=0;entryDy=0;fontSize=12;startSize=8;endSize=8;" parent="1" source="WKKPIDza1_U7zghBaNiP-38" target="WKKPIDza1_U7zghBaNiP-46" edge="1">
          <mxGeometry relative="1" as="geometry" />
        </mxCell>
        <mxCell id="WKKPIDza1_U7zghBaNiP-38" value="1" style="ellipse;whiteSpace=wrap;html=1;aspect=fixed;fontSize=16;" parent="1" vertex="1">
          <mxGeometry x="-435" y="220" width="40" height="40" as="geometry" />
        </mxCell>
        <mxCell id="WKKPIDza1_U7zghBaNiP-39" style="edgeStyle=none;curved=1;rounded=0;orthogonalLoop=1;jettySize=auto;html=1;exitX=1;exitY=0.5;exitDx=0;exitDy=0;entryX=0;entryY=0.5;entryDx=0;entryDy=0;fontSize=12;startSize=8;endSize=8;" parent="1" source="WKKPIDza1_U7zghBaNiP-40" target="WKKPIDza1_U7zghBaNiP-48" edge="1">
          <mxGeometry relative="1" as="geometry" />
        </mxCell>
        <mxCell id="WKKPIDza1_U7zghBaNiP-40" value="x&lt;sub&gt;1&lt;/sub&gt;" style="ellipse;whiteSpace=wrap;html=1;aspect=fixed;fontSize=16;" parent="1" vertex="1">
          <mxGeometry x="-435" y="290" width="40" height="40" as="geometry" />
        </mxCell>
        <mxCell id="WKKPIDza1_U7zghBaNiP-41" style="edgeStyle=none;curved=1;rounded=0;orthogonalLoop=1;jettySize=auto;html=1;exitX=1;exitY=0.5;exitDx=0;exitDy=0;entryX=0;entryY=0.5;entryDx=0;entryDy=0;fontSize=12;startSize=8;endSize=8;" parent="1" source="WKKPIDza1_U7zghBaNiP-42" target="WKKPIDza1_U7zghBaNiP-50" edge="1">
          <mxGeometry relative="1" as="geometry" />
        </mxCell>
        <mxCell id="WKKPIDza1_U7zghBaNiP-42" value="x&lt;span style=&quot;font-size: 13.3333px;&quot;&gt;&lt;sub&gt;2&lt;/sub&gt;&lt;/span&gt;" style="ellipse;whiteSpace=wrap;html=1;aspect=fixed;fontSize=16;" parent="1" vertex="1">
          <mxGeometry x="-435" y="360" width="40" height="40" as="geometry" />
        </mxCell>
        <mxCell id="WKKPIDza1_U7zghBaNiP-43" style="edgeStyle=none;curved=1;rounded=0;orthogonalLoop=1;jettySize=auto;html=1;exitX=1;exitY=0.5;exitDx=0;exitDy=0;entryX=0;entryY=0.5;entryDx=0;entryDy=0;fontSize=12;startSize=8;endSize=8;" parent="1" source="WKKPIDza1_U7zghBaNiP-44" target="WKKPIDza1_U7zghBaNiP-52" edge="1">
          <mxGeometry relative="1" as="geometry" />
        </mxCell>
        <mxCell id="WKKPIDza1_U7zghBaNiP-44" value="x&lt;span style=&quot;font-size: 13.3333px;&quot;&gt;&lt;sub&gt;m&lt;/sub&gt;&lt;/span&gt;" style="ellipse;whiteSpace=wrap;html=1;aspect=fixed;fontSize=16;" parent="1" vertex="1">
          <mxGeometry x="-435" y="430" width="40" height="40" as="geometry" />
        </mxCell>
        <mxCell id="WKKPIDza1_U7zghBaNiP-45" style="edgeStyle=none;curved=1;rounded=0;orthogonalLoop=1;jettySize=auto;html=1;entryX=0;entryY=0.5;entryDx=0;entryDy=0;fontSize=12;startSize=8;endSize=8;endArrow=none;endFill=0;" parent="1" source="WKKPIDza1_U7zghBaNiP-46" target="WKKPIDza1_U7zghBaNiP-57" edge="1">
          <mxGeometry relative="1" as="geometry" />
        </mxCell>
        <mxCell id="WKKPIDza1_U7zghBaNiP-46" value="w&lt;sub&gt;0&lt;/sub&gt;" style="ellipse;whiteSpace=wrap;html=1;aspect=fixed;fontSize=16;" parent="1" vertex="1">
          <mxGeometry x="-275" y="220" width="40" height="40" as="geometry" />
        </mxCell>
        <mxCell id="WKKPIDza1_U7zghBaNiP-47" style="edgeStyle=none;curved=1;rounded=0;orthogonalLoop=1;jettySize=auto;html=1;entryX=0;entryY=0.5;entryDx=0;entryDy=0;fontSize=12;startSize=8;endSize=8;endArrow=none;endFill=0;" parent="1" source="WKKPIDza1_U7zghBaNiP-48" target="WKKPIDza1_U7zghBaNiP-57" edge="1">
          <mxGeometry relative="1" as="geometry" />
        </mxCell>
        <mxCell id="WKKPIDza1_U7zghBaNiP-48" value="w&lt;sub&gt;2&lt;/sub&gt;" style="ellipse;whiteSpace=wrap;html=1;aspect=fixed;fontSize=16;" parent="1" vertex="1">
          <mxGeometry x="-275" y="290" width="40" height="40" as="geometry" />
        </mxCell>
        <mxCell id="WKKPIDza1_U7zghBaNiP-49" style="edgeStyle=none;curved=1;rounded=0;orthogonalLoop=1;jettySize=auto;html=1;exitX=1;exitY=0.5;exitDx=0;exitDy=0;fontSize=12;startSize=8;endSize=8;endArrow=none;endFill=0;entryX=0;entryY=0.5;entryDx=0;entryDy=0;" parent="1" source="WKKPIDza1_U7zghBaNiP-50" target="WKKPIDza1_U7zghBaNiP-57" edge="1">
          <mxGeometry relative="1" as="geometry">
            <mxPoint x="-95" y="340" as="targetPoint" />
          </mxGeometry>
        </mxCell>
        <mxCell id="WKKPIDza1_U7zghBaNiP-50" value="w&lt;sub&gt;2&lt;/sub&gt;" style="ellipse;whiteSpace=wrap;html=1;aspect=fixed;fontSize=16;" parent="1" vertex="1">
          <mxGeometry x="-275" y="360" width="40" height="40" as="geometry" />
        </mxCell>
        <mxCell id="WKKPIDza1_U7zghBaNiP-51" style="edgeStyle=none;curved=1;rounded=0;orthogonalLoop=1;jettySize=auto;html=1;exitX=1;exitY=0.5;exitDx=0;exitDy=0;entryX=0;entryY=0.5;entryDx=0;entryDy=0;fontSize=12;startSize=8;endSize=8;endArrow=none;endFill=0;" parent="1" source="WKKPIDza1_U7zghBaNiP-52" target="WKKPIDza1_U7zghBaNiP-57" edge="1">
          <mxGeometry relative="1" as="geometry" />
        </mxCell>
        <mxCell id="WKKPIDza1_U7zghBaNiP-52" value="w&lt;span style=&quot;font-size: 11.1111px;&quot;&gt;m&lt;/span&gt;" style="ellipse;whiteSpace=wrap;html=1;aspect=fixed;fontSize=16;" parent="1" vertex="1">
          <mxGeometry x="-275" y="430" width="40" height="40" as="geometry" />
        </mxCell>
        <mxCell id="WKKPIDza1_U7zghBaNiP-53" value="" style="endArrow=none;dashed=1;html=1;dashPattern=1 3;strokeWidth=2;rounded=0;fontSize=12;startSize=8;endSize=8;curved=1;" parent="1" edge="1">
          <mxGeometry width="50" height="50" relative="1" as="geometry">
            <mxPoint x="-335" y="430" as="sourcePoint" />
            <mxPoint x="-335" y="400" as="targetPoint" />
            <Array as="points">
              <mxPoint x="-335" y="420" />
            </Array>
          </mxGeometry>
        </mxCell>
        <mxCell id="WKKPIDza1_U7zghBaNiP-54" value="Samples" style="text;html=1;strokeColor=none;fillColor=none;align=center;verticalAlign=middle;whiteSpace=wrap;rounded=0;fontSize=16;" parent="1" vertex="1">
          <mxGeometry x="-445" y="510" width="60" height="30" as="geometry" />
        </mxCell>
        <mxCell id="WKKPIDza1_U7zghBaNiP-55" value="Weights&lt;br&gt;/Parameters" style="text;html=1;strokeColor=none;fillColor=none;align=center;verticalAlign=middle;whiteSpace=wrap;rounded=0;fontSize=16;" parent="1" vertex="1">
          <mxGeometry x="-285" y="510" width="60" height="30" as="geometry" />
        </mxCell>
        <mxCell id="WKKPIDza1_U7zghBaNiP-56" style="edgeStyle=none;curved=1;rounded=0;orthogonalLoop=1;jettySize=auto;html=1;entryX=0;entryY=0.5;entryDx=0;entryDy=0;fontSize=12;startSize=8;endSize=8;endArrow=none;endFill=0;" parent="1" source="WKKPIDza1_U7zghBaNiP-57" target="WKKPIDza1_U7zghBaNiP-67" edge="1">
          <mxGeometry relative="1" as="geometry" />
        </mxCell>
        <mxCell id="WKKPIDza1_U7zghBaNiP-57" value="&lt;font style=&quot;font-size: 34px;&quot;&gt;Σ&lt;/font&gt;" style="ellipse;whiteSpace=wrap;html=1;aspect=fixed;fontSize=16;" parent="1" vertex="1">
          <mxGeometry x="-95" y="310" width="80" height="80" as="geometry" />
        </mxCell>
        <mxCell id="WKKPIDza1_U7zghBaNiP-58" value="Net Input" style="text;html=1;strokeColor=none;fillColor=none;align=center;verticalAlign=middle;whiteSpace=wrap;rounded=0;fontSize=16;" parent="1" vertex="1">
          <mxGeometry x="-85" y="410" width="60" height="30" as="geometry" />
        </mxCell>
        <mxCell id="WKKPIDza1_U7zghBaNiP-59" style="edgeStyle=none;curved=1;rounded=0;orthogonalLoop=1;jettySize=auto;html=1;fontSize=12;startSize=8;endSize=8;endArrow=blockThin;endFill=1;" parent="1" source="WKKPIDza1_U7zghBaNiP-60" edge="1">
          <mxGeometry relative="1" as="geometry">
            <mxPoint x="445" y="350" as="targetPoint" />
          </mxGeometry>
        </mxCell>
        <mxCell id="WKKPIDza1_U7zghBaNiP-60" value="&lt;font style=&quot;font-size: 34px;&quot;&gt;θ&lt;/font&gt;" style="ellipse;whiteSpace=wrap;html=1;aspect=fixed;fontSize=16;" parent="1" vertex="1">
          <mxGeometry x="290" y="310" width="80" height="80" as="geometry" />
        </mxCell>
        <mxCell id="WKKPIDza1_U7zghBaNiP-61" value="Output" style="text;strokeColor=none;fillColor=none;html=1;align=center;verticalAlign=middle;whiteSpace=wrap;rounded=0;fontSize=16;" parent="1" vertex="1">
          <mxGeometry x="455" y="335" width="60" height="30" as="geometry" />
        </mxCell>
        <mxCell id="WKKPIDza1_U7zghBaNiP-62" style="edgeStyle=orthogonalEdgeStyle;rounded=0;orthogonalLoop=1;jettySize=auto;html=1;fontSize=12;startSize=8;endSize=8;endArrow=blockThin;endFill=1;" parent="1" source="WKKPIDza1_U7zghBaNiP-63" edge="1">
          <mxGeometry relative="1" as="geometry">
            <mxPoint x="-255" y="210" as="targetPoint" />
            <Array as="points">
              <mxPoint x="-255" y="160" />
            </Array>
          </mxGeometry>
        </mxCell>
        <mxCell id="WKKPIDza1_U7zghBaNiP-63" value="gradient:&amp;nbsp; `etasum(y^i-phi(z^i))x_j^i`" style="rounded=0;whiteSpace=wrap;html=1;fontSize=16;strokeWidth=2;fillColor=#f8cecc;strokeColor=#b85450;" parent="1" vertex="1">
          <mxGeometry x="-120" y="130" width="255" height="50" as="geometry" />
        </mxCell>
        <mxCell id="WKKPIDza1_U7zghBaNiP-64" value="" style="edgeStyle=segmentEdgeStyle;endArrow=none;html=1;curved=0;rounded=0;endSize=8;startSize=8;sourcePerimeterSpacing=0;targetPerimeterSpacing=0;fontSize=12;exitX=1;exitY=0.75;exitDx=0;exitDy=0;endFill=0;" parent="1" source="WKKPIDza1_U7zghBaNiP-63" edge="1">
          <mxGeometry width="140" relative="1" as="geometry">
            <mxPoint x="95" y="220" as="sourcePoint" />
            <mxPoint x="235" y="350" as="targetPoint" />
            <Array as="points">
              <mxPoint x="235" y="168" />
            </Array>
          </mxGeometry>
        </mxCell>
        <mxCell id="WKKPIDza1_U7zghBaNiP-65" value="Update weights" style="text;html=1;strokeColor=none;fillColor=none;align=center;verticalAlign=middle;whiteSpace=wrap;rounded=0;fontSize=16;" parent="1" vertex="1">
          <mxGeometry x="-45" y="200" width="60" height="30" as="geometry" />
        </mxCell>
        <mxCell id="WKKPIDza1_U7zghBaNiP-66" value="Threshold&lt;br&gt;Function" style="text;html=1;strokeColor=none;fillColor=none;align=center;verticalAlign=middle;whiteSpace=wrap;rounded=0;fontSize=16;" parent="1" vertex="1">
          <mxGeometry x="300" y="410" width="60" height="30" as="geometry" />
        </mxCell>
        <mxCell id="WKKPIDza1_U7zghBaNiP-68" style="edgeStyle=none;curved=1;rounded=0;orthogonalLoop=1;jettySize=auto;html=1;entryX=0;entryY=0.5;entryDx=0;entryDy=0;fontSize=12;startSize=8;endSize=8;endArrow=none;endFill=0;" parent="1" source="WKKPIDza1_U7zghBaNiP-67" target="WKKPIDza1_U7zghBaNiP-60" edge="1">
          <mxGeometry relative="1" as="geometry" />
        </mxCell>
        <mxCell id="WKKPIDza1_U7zghBaNiP-67" value="&lt;font style=&quot;font-size: 34px;&quot;&gt;σ&lt;/font&gt;" style="ellipse;whiteSpace=wrap;html=1;aspect=fixed;fontSize=16;fillColor=#dae8fc;strokeColor=#6c8ebf;" parent="1" vertex="1">
          <mxGeometry x="100" y="310" width="80" height="80" as="geometry" />
        </mxCell>
        <mxCell id="WKKPIDza1_U7zghBaNiP-74" value="" style="edgeStyle=none;curved=1;rounded=0;orthogonalLoop=1;jettySize=auto;html=1;fontSize=12;startSize=8;endSize=8;" parent="1" source="WKKPIDza1_U7zghBaNiP-69" target="WKKPIDza1_U7zghBaNiP-73" edge="1">
          <mxGeometry relative="1" as="geometry" />
        </mxCell>
        <mxCell id="WKKPIDza1_U7zghBaNiP-69" value="Activation&lt;br&gt;Function" style="text;html=1;align=center;verticalAlign=middle;whiteSpace=wrap;rounded=0;fontSize=16;" parent="1" vertex="1">
          <mxGeometry x="110" y="410" width="60" height="30" as="geometry" />
        </mxCell>
        <mxCell id="WKKPIDza1_U7zghBaNiP-73" value="Linear:&amp;nbsp; `phi(z)=x`" style="whiteSpace=wrap;html=1;fontSize=16;fillColor=#dae8fc;strokeColor=#6c8ebf;" parent="1" vertex="1">
          <mxGeometry x="62.5" y="510" width="155" height="30" as="geometry" />
        </mxCell>
        <mxCell id="WKKPIDza1_U7zghBaNiP-75" value="Logistic Regression" style="rounded=1;whiteSpace=wrap;html=1;fontSize=23;fontStyle=0" parent="1" vertex="1">
          <mxGeometry x="920" y="40" width="960" height="60" as="geometry" />
        </mxCell>
        <mxCell id="WKKPIDza1_U7zghBaNiP-76" style="edgeStyle=none;curved=1;rounded=0;orthogonalLoop=1;jettySize=auto;html=1;exitX=1;exitY=0.5;exitDx=0;exitDy=0;entryX=0;entryY=0.5;entryDx=0;entryDy=0;fontSize=12;startSize=8;endSize=8;" parent="1" source="WKKPIDza1_U7zghBaNiP-77" target="WKKPIDza1_U7zghBaNiP-85" edge="1">
          <mxGeometry relative="1" as="geometry" />
        </mxCell>
        <mxCell id="WKKPIDza1_U7zghBaNiP-77" value="1" style="ellipse;whiteSpace=wrap;html=1;aspect=fixed;fontSize=16;" parent="1" vertex="1">
          <mxGeometry x="910" y="220" width="40" height="40" as="geometry" />
        </mxCell>
        <mxCell id="WKKPIDza1_U7zghBaNiP-78" style="edgeStyle=none;curved=1;rounded=0;orthogonalLoop=1;jettySize=auto;html=1;exitX=1;exitY=0.5;exitDx=0;exitDy=0;entryX=0;entryY=0.5;entryDx=0;entryDy=0;fontSize=12;startSize=8;endSize=8;" parent="1" source="WKKPIDza1_U7zghBaNiP-79" target="WKKPIDza1_U7zghBaNiP-87" edge="1">
          <mxGeometry relative="1" as="geometry" />
        </mxCell>
        <mxCell id="WKKPIDza1_U7zghBaNiP-79" value="x&lt;sub&gt;1&lt;/sub&gt;" style="ellipse;whiteSpace=wrap;html=1;aspect=fixed;fontSize=16;" parent="1" vertex="1">
          <mxGeometry x="910" y="290" width="40" height="40" as="geometry" />
        </mxCell>
        <mxCell id="WKKPIDza1_U7zghBaNiP-80" style="edgeStyle=none;curved=1;rounded=0;orthogonalLoop=1;jettySize=auto;html=1;exitX=1;exitY=0.5;exitDx=0;exitDy=0;entryX=0;entryY=0.5;entryDx=0;entryDy=0;fontSize=12;startSize=8;endSize=8;" parent="1" source="WKKPIDza1_U7zghBaNiP-81" target="WKKPIDza1_U7zghBaNiP-89" edge="1">
          <mxGeometry relative="1" as="geometry" />
        </mxCell>
        <mxCell id="WKKPIDza1_U7zghBaNiP-81" value="x&lt;span style=&quot;font-size: 13.3333px;&quot;&gt;&lt;sub&gt;2&lt;/sub&gt;&lt;/span&gt;" style="ellipse;whiteSpace=wrap;html=1;aspect=fixed;fontSize=16;" parent="1" vertex="1">
          <mxGeometry x="910" y="360" width="40" height="40" as="geometry" />
        </mxCell>
        <mxCell id="WKKPIDza1_U7zghBaNiP-82" style="edgeStyle=none;curved=1;rounded=0;orthogonalLoop=1;jettySize=auto;html=1;exitX=1;exitY=0.5;exitDx=0;exitDy=0;entryX=0;entryY=0.5;entryDx=0;entryDy=0;fontSize=12;startSize=8;endSize=8;" parent="1" source="WKKPIDza1_U7zghBaNiP-83" target="WKKPIDza1_U7zghBaNiP-91" edge="1">
          <mxGeometry relative="1" as="geometry" />
        </mxCell>
        <mxCell id="WKKPIDza1_U7zghBaNiP-83" value="x&lt;span style=&quot;font-size: 13.3333px;&quot;&gt;&lt;sub&gt;m&lt;/sub&gt;&lt;/span&gt;" style="ellipse;whiteSpace=wrap;html=1;aspect=fixed;fontSize=16;" parent="1" vertex="1">
          <mxGeometry x="910" y="430" width="40" height="40" as="geometry" />
        </mxCell>
        <mxCell id="WKKPIDza1_U7zghBaNiP-84" style="edgeStyle=none;curved=1;rounded=0;orthogonalLoop=1;jettySize=auto;html=1;entryX=0;entryY=0.5;entryDx=0;entryDy=0;fontSize=12;startSize=8;endSize=8;endArrow=none;endFill=0;" parent="1" source="WKKPIDza1_U7zghBaNiP-85" target="WKKPIDza1_U7zghBaNiP-96" edge="1">
          <mxGeometry relative="1" as="geometry" />
        </mxCell>
        <mxCell id="WKKPIDza1_U7zghBaNiP-85" value="w&lt;sub&gt;0&lt;/sub&gt;" style="ellipse;whiteSpace=wrap;html=1;aspect=fixed;fontSize=16;" parent="1" vertex="1">
          <mxGeometry x="1070" y="220" width="40" height="40" as="geometry" />
        </mxCell>
        <mxCell id="WKKPIDza1_U7zghBaNiP-86" style="edgeStyle=none;curved=1;rounded=0;orthogonalLoop=1;jettySize=auto;html=1;entryX=0;entryY=0.5;entryDx=0;entryDy=0;fontSize=12;startSize=8;endSize=8;endArrow=none;endFill=0;" parent="1" source="WKKPIDza1_U7zghBaNiP-87" target="WKKPIDza1_U7zghBaNiP-96" edge="1">
          <mxGeometry relative="1" as="geometry" />
        </mxCell>
        <mxCell id="WKKPIDza1_U7zghBaNiP-87" value="w&lt;sub&gt;2&lt;/sub&gt;" style="ellipse;whiteSpace=wrap;html=1;aspect=fixed;fontSize=16;" parent="1" vertex="1">
          <mxGeometry x="1070" y="290" width="40" height="40" as="geometry" />
        </mxCell>
        <mxCell id="WKKPIDza1_U7zghBaNiP-88" style="edgeStyle=none;curved=1;rounded=0;orthogonalLoop=1;jettySize=auto;html=1;exitX=1;exitY=0.5;exitDx=0;exitDy=0;fontSize=12;startSize=8;endSize=8;endArrow=none;endFill=0;entryX=0;entryY=0.5;entryDx=0;entryDy=0;" parent="1" source="WKKPIDza1_U7zghBaNiP-89" target="WKKPIDza1_U7zghBaNiP-96" edge="1">
          <mxGeometry relative="1" as="geometry">
            <mxPoint x="1250" y="340" as="targetPoint" />
          </mxGeometry>
        </mxCell>
        <mxCell id="WKKPIDza1_U7zghBaNiP-89" value="w&lt;sub&gt;2&lt;/sub&gt;" style="ellipse;whiteSpace=wrap;html=1;aspect=fixed;fontSize=16;" parent="1" vertex="1">
          <mxGeometry x="1070" y="360" width="40" height="40" as="geometry" />
        </mxCell>
        <mxCell id="WKKPIDza1_U7zghBaNiP-90" style="edgeStyle=none;curved=1;rounded=0;orthogonalLoop=1;jettySize=auto;html=1;exitX=1;exitY=0.5;exitDx=0;exitDy=0;entryX=0;entryY=0.5;entryDx=0;entryDy=0;fontSize=12;startSize=8;endSize=8;endArrow=none;endFill=0;" parent="1" source="WKKPIDza1_U7zghBaNiP-91" target="WKKPIDza1_U7zghBaNiP-96" edge="1">
          <mxGeometry relative="1" as="geometry" />
        </mxCell>
        <mxCell id="WKKPIDza1_U7zghBaNiP-91" value="w&lt;span style=&quot;font-size: 11.1111px;&quot;&gt;m&lt;/span&gt;" style="ellipse;whiteSpace=wrap;html=1;aspect=fixed;fontSize=16;" parent="1" vertex="1">
          <mxGeometry x="1070" y="430" width="40" height="40" as="geometry" />
        </mxCell>
        <mxCell id="WKKPIDza1_U7zghBaNiP-92" value="" style="endArrow=none;dashed=1;html=1;dashPattern=1 3;strokeWidth=2;rounded=0;fontSize=12;startSize=8;endSize=8;curved=1;" parent="1" edge="1">
          <mxGeometry width="50" height="50" relative="1" as="geometry">
            <mxPoint x="1010" y="430" as="sourcePoint" />
            <mxPoint x="1010" y="400" as="targetPoint" />
            <Array as="points">
              <mxPoint x="1010" y="420" />
            </Array>
          </mxGeometry>
        </mxCell>
        <mxCell id="WKKPIDza1_U7zghBaNiP-93" value="Samples" style="text;html=1;strokeColor=none;fillColor=none;align=center;verticalAlign=middle;whiteSpace=wrap;rounded=0;fontSize=16;" parent="1" vertex="1">
          <mxGeometry x="900" y="510" width="60" height="30" as="geometry" />
        </mxCell>
        <mxCell id="WKKPIDza1_U7zghBaNiP-94" value="Weights&lt;br&gt;/Parameters" style="text;html=1;strokeColor=none;fillColor=none;align=center;verticalAlign=middle;whiteSpace=wrap;rounded=0;fontSize=16;" parent="1" vertex="1">
          <mxGeometry x="1060" y="510" width="60" height="30" as="geometry" />
        </mxCell>
        <mxCell id="WKKPIDza1_U7zghBaNiP-95" style="edgeStyle=none;curved=1;rounded=0;orthogonalLoop=1;jettySize=auto;html=1;entryX=0;entryY=0.5;entryDx=0;entryDy=0;fontSize=12;startSize=8;endSize=8;endArrow=none;endFill=0;" parent="1" source="WKKPIDza1_U7zghBaNiP-96" target="WKKPIDza1_U7zghBaNiP-107" edge="1">
          <mxGeometry relative="1" as="geometry" />
        </mxCell>
        <mxCell id="WKKPIDza1_U7zghBaNiP-96" value="&lt;font style=&quot;font-size: 34px;&quot;&gt;Σ&lt;/font&gt;" style="ellipse;whiteSpace=wrap;html=1;aspect=fixed;fontSize=16;" parent="1" vertex="1">
          <mxGeometry x="1250" y="310" width="80" height="80" as="geometry" />
        </mxCell>
        <mxCell id="WKKPIDza1_U7zghBaNiP-97" value="Net Input" style="text;html=1;strokeColor=none;fillColor=none;align=center;verticalAlign=middle;whiteSpace=wrap;rounded=0;fontSize=16;" parent="1" vertex="1">
          <mxGeometry x="1260" y="410" width="60" height="30" as="geometry" />
        </mxCell>
        <mxCell id="WKKPIDza1_U7zghBaNiP-98" style="edgeStyle=none;curved=1;rounded=0;orthogonalLoop=1;jettySize=auto;html=1;fontSize=12;startSize=8;endSize=8;endArrow=blockThin;endFill=1;" parent="1" source="WKKPIDza1_U7zghBaNiP-99" edge="1">
          <mxGeometry relative="1" as="geometry">
            <mxPoint x="1790" y="350" as="targetPoint" />
          </mxGeometry>
        </mxCell>
        <mxCell id="WKKPIDza1_U7zghBaNiP-99" value="&lt;font style=&quot;font-size: 34px;&quot;&gt;θ&lt;/font&gt;" style="ellipse;whiteSpace=wrap;html=1;aspect=fixed;fontSize=16;" parent="1" vertex="1">
          <mxGeometry x="1635" y="310" width="80" height="80" as="geometry" />
        </mxCell>
        <mxCell id="WKKPIDza1_U7zghBaNiP-100" value="Output" style="text;strokeColor=none;fillColor=none;html=1;align=center;verticalAlign=middle;whiteSpace=wrap;rounded=0;fontSize=16;" parent="1" vertex="1">
          <mxGeometry x="1800" y="335" width="60" height="30" as="geometry" />
        </mxCell>
        <mxCell id="WKKPIDza1_U7zghBaNiP-101" style="edgeStyle=orthogonalEdgeStyle;rounded=0;orthogonalLoop=1;jettySize=auto;html=1;fontSize=12;startSize=8;endSize=8;endArrow=blockThin;endFill=1;" parent="1" source="WKKPIDza1_U7zghBaNiP-102" edge="1">
          <mxGeometry relative="1" as="geometry">
            <mxPoint x="1090" y="210" as="targetPoint" />
            <Array as="points">
              <mxPoint x="1090" y="160" />
            </Array>
          </mxGeometry>
        </mxCell>
        <mxCell id="WKKPIDza1_U7zghBaNiP-117" style="edgeStyle=orthogonalEdgeStyle;rounded=0;orthogonalLoop=1;jettySize=auto;html=1;entryX=0;entryY=0.5;entryDx=0;entryDy=0;endArrow=blockThin;endFill=1;dashed=1;" parent="1" source="WKKPIDza1_U7zghBaNiP-102" target="WKKPIDza1_U7zghBaNiP-116" edge="1">
          <mxGeometry relative="1" as="geometry" />
        </mxCell>
        <mxCell id="WKKPIDza1_U7zghBaNiP-102" value="gradient: `sum_(i=1)^n[-y^(i)log(phi(z^(i))-(1-y^(i))log(1-phi(z^(i))))]`" style="rounded=0;whiteSpace=wrap;html=1;fontSize=16;strokeWidth=2;fillColor=#f8cecc;strokeColor=#b85450;" parent="1" vertex="1">
          <mxGeometry x="1160" y="140" width="380" height="80" as="geometry" />
        </mxCell>
        <mxCell id="WKKPIDza1_U7zghBaNiP-103" value="" style="edgeStyle=segmentEdgeStyle;endArrow=none;html=1;curved=0;rounded=0;endSize=8;startSize=8;sourcePerimeterSpacing=0;targetPerimeterSpacing=0;fontSize=12;exitX=1;exitY=0.75;exitDx=0;exitDy=0;endFill=0;" parent="1" source="WKKPIDza1_U7zghBaNiP-102" edge="1">
          <mxGeometry width="140" relative="1" as="geometry">
            <mxPoint x="1440" y="220" as="sourcePoint" />
            <mxPoint x="1580" y="350" as="targetPoint" />
            <Array as="points">
              <mxPoint x="1580" y="200" />
            </Array>
          </mxGeometry>
        </mxCell>
        <mxCell id="WKKPIDza1_U7zghBaNiP-104" value="Update weights" style="text;html=1;strokeColor=none;fillColor=none;align=center;verticalAlign=middle;whiteSpace=wrap;rounded=0;fontSize=16;" parent="1" vertex="1">
          <mxGeometry x="1320" y="230" width="60" height="30" as="geometry" />
        </mxCell>
        <mxCell id="WKKPIDza1_U7zghBaNiP-105" value="Threshold&lt;br&gt;Function" style="text;html=1;strokeColor=none;fillColor=none;align=center;verticalAlign=middle;whiteSpace=wrap;rounded=0;fontSize=16;" parent="1" vertex="1">
          <mxGeometry x="1645" y="410" width="60" height="30" as="geometry" />
        </mxCell>
        <mxCell id="WKKPIDza1_U7zghBaNiP-106" style="edgeStyle=none;curved=1;rounded=0;orthogonalLoop=1;jettySize=auto;html=1;entryX=0;entryY=0.5;entryDx=0;entryDy=0;fontSize=12;startSize=8;endSize=8;endArrow=none;endFill=0;" parent="1" source="WKKPIDza1_U7zghBaNiP-107" target="WKKPIDza1_U7zghBaNiP-99" edge="1">
          <mxGeometry relative="1" as="geometry" />
        </mxCell>
        <mxCell id="WKKPIDza1_U7zghBaNiP-107" value="&lt;font style=&quot;font-size: 34px;&quot;&gt;σ&lt;/font&gt;" style="ellipse;whiteSpace=wrap;html=1;aspect=fixed;fontSize=16;fillColor=#dae8fc;strokeColor=#6c8ebf;" parent="1" vertex="1">
          <mxGeometry x="1445" y="310" width="80" height="80" as="geometry" />
        </mxCell>
        <mxCell id="WKKPIDza1_U7zghBaNiP-108" value="" style="edgeStyle=none;curved=1;rounded=0;orthogonalLoop=1;jettySize=auto;html=1;fontSize=12;startSize=8;endSize=8;" parent="1" source="WKKPIDza1_U7zghBaNiP-109" target="WKKPIDza1_U7zghBaNiP-110" edge="1">
          <mxGeometry relative="1" as="geometry" />
        </mxCell>
        <mxCell id="WKKPIDza1_U7zghBaNiP-109" value="Activation&lt;br&gt;Function" style="text;html=1;align=center;verticalAlign=middle;whiteSpace=wrap;rounded=0;fontSize=16;" parent="1" vertex="1">
          <mxGeometry x="1455" y="410" width="60" height="30" as="geometry" />
        </mxCell>
        <mxCell id="WKKPIDza1_U7zghBaNiP-110" value="sigmoid: `phi(z)=1/(1+e^-z)`" style="whiteSpace=wrap;html=1;fontSize=16;fillColor=#dae8fc;strokeColor=#6c8ebf;" parent="1" vertex="1">
          <mxGeometry x="1340" y="510" width="290" height="50" as="geometry" />
        </mxCell>
        <mxCell id="WKKPIDza1_U7zghBaNiP-116" value="Regularization: errors + `lamda/2||omega||^2`" style="rounded=1;whiteSpace=wrap;html=1;" parent="1" vertex="1">
          <mxGeometry x="1645" y="185" width="190" height="60" as="geometry" />
        </mxCell>
        <mxCell id="y2mqHJG9jN6qczpyBOIt-1" value="`eta(y^i-haty^i)x_j^i`" style="rounded=1;whiteSpace=wrap;html=1;fontSize=27;fillColor=#f8cecc;strokeColor=#b85450;" parent="1" vertex="1">
          <mxGeometry x="-1380" y="-280" width="780" height="240" as="geometry" />
        </mxCell>
        <mxCell id="y2mqHJG9jN6qczpyBOIt-2" value="Basic classification model" style="rounded=1;whiteSpace=wrap;html=1;horizontal=1;fontSize=27;fillColor=#f5f5f5;fontColor=#333333;strokeColor=#666666;" parent="1" vertex="1">
          <mxGeometry x="-2040" y="40" width="400" height="520" as="geometry" />
        </mxCell>
        <mxCell id="y2mqHJG9jN6qczpyBOIt-4" value="Loss Function" style="rounded=1;whiteSpace=wrap;html=1;horizontal=1;fontSize=27;fillColor=#f5f5f5;fontColor=#333333;strokeColor=#666666;" parent="1" vertex="1">
          <mxGeometry x="-2040" y="-280" width="400" height="240" as="geometry" />
        </mxCell>
        <mxCell id="y2mqHJG9jN6qczpyBOIt-12" style="edgeStyle=orthogonalEdgeStyle;rounded=0;orthogonalLoop=1;jettySize=auto;html=1;entryX=0.5;entryY=0;entryDx=0;entryDy=0;endArrow=none;endFill=0;" parent="1" source="y2mqHJG9jN6qczpyBOIt-5" target="y2mqHJG9jN6qczpyBOIt-11" edge="1">
          <mxGeometry relative="1" as="geometry" />
        </mxCell>
        <mxCell id="y2mqHJG9jN6qczpyBOIt-5" value="&lt;b&gt;Sum-of-Square Error, SSE&lt;br&gt;&lt;/b&gt;`J(omega)=1/2sum_i(y^i-phi(z^i))^2`" style="rounded=1;whiteSpace=wrap;html=1;fontSize=27;fillColor=#f8cecc;strokeColor=#b85450;" parent="1" vertex="1">
          <mxGeometry x="-435" y="-280" width="955" height="240" as="geometry" />
        </mxCell>
        <mxCell id="y2mqHJG9jN6qczpyBOIt-16" style="edgeStyle=orthogonalEdgeStyle;rounded=0;orthogonalLoop=1;jettySize=auto;html=1;entryX=0.5;entryY=0;entryDx=0;entryDy=0;endArrow=none;endFill=0;" parent="1" source="y2mqHJG9jN6qczpyBOIt-6" target="y2mqHJG9jN6qczpyBOIt-15" edge="1">
          <mxGeometry relative="1" as="geometry" />
        </mxCell>
        <mxCell id="y2mqHJG9jN6qczpyBOIt-6" value="&lt;b&gt;Likelihood:&lt;br&gt;&lt;/b&gt;`L(omega)=prod_(i=1)^n&lt;br&gt;P(y|x,omega)=prod_(i=1)^n(phi(z^i))^(y^i)(1-phi(z^i))^(1-y^i)`&lt;br&gt;&lt;b&gt;(-log) Likelihood:&lt;br&gt;&lt;/b&gt;&amp;nbsp;`l(omega)=logL(omega)=-sum_(i=1)^n[y^ilog(phi(z^i))+(1-y^i)log(1-phi(z^i))]`" style="rounded=1;whiteSpace=wrap;html=1;fontSize=27;fillColor=#f8cecc;strokeColor=#b85450;" parent="1" vertex="1">
          <mxGeometry x="920" y="-280" width="960" height="240" as="geometry" />
        </mxCell>
        <mxCell id="y2mqHJG9jN6qczpyBOIt-14" style="edgeStyle=orthogonalEdgeStyle;rounded=0;orthogonalLoop=1;jettySize=auto;html=1;entryX=1;entryY=0.25;entryDx=0;entryDy=0;endArrow=blockThin;endFill=1;" parent="1" source="y2mqHJG9jN6qczpyBOIt-11" target="WKKPIDza1_U7zghBaNiP-63" edge="1">
          <mxGeometry relative="1" as="geometry">
            <Array as="points">
              <mxPoint x="725" y="143" />
              <mxPoint x="377" y="143" />
            </Array>
          </mxGeometry>
        </mxCell>
        <mxCell id="y2mqHJG9jN6qczpyBOIt-11" value="&lt;b&gt;Gradient Descent, GD&lt;br&gt;&lt;/b&gt;- update weights of whole samples and outputs at every iterations" style="rounded=1;whiteSpace=wrap;html=1;fillColor=#ffe6cc;strokeColor=#d79b00;" parent="1" vertex="1">
          <mxGeometry x="600" y="-40" width="210" height="60" as="geometry" />
        </mxCell>
        <mxCell id="y2mqHJG9jN6qczpyBOIt-17" style="edgeStyle=orthogonalEdgeStyle;rounded=0;orthogonalLoop=1;jettySize=auto;html=1;entryX=1;entryY=0.25;entryDx=0;entryDy=0;endArrow=blockThin;endFill=1;" parent="1" source="y2mqHJG9jN6qczpyBOIt-15" target="WKKPIDza1_U7zghBaNiP-102" edge="1">
          <mxGeometry relative="1" as="geometry">
            <Array as="points">
              <mxPoint x="2125" y="160" />
            </Array>
          </mxGeometry>
        </mxCell>
        <mxCell id="y2mqHJG9jN6qczpyBOIt-15" value="&lt;b&gt;Stochastic&amp;nbsp;Gradient Descent, SGD&lt;br&gt;&lt;/b&gt;- recursively update weight to single sample and output at every iterations" style="rounded=1;whiteSpace=wrap;html=1;fillColor=#ffe6cc;strokeColor=#d79b00;" parent="1" vertex="1">
          <mxGeometry x="2020" y="-40" width="210" height="60" as="geometry" />
        </mxCell>
        <mxCell id="qIxIC6XoOFTM2rj8s1kV-5" style="edgeStyle=orthogonalEdgeStyle;rounded=0;orthogonalLoop=1;jettySize=auto;html=1;entryX=0.5;entryY=0;entryDx=0;entryDy=0;endArrow=blockThin;endFill=1;" parent="1" source="qIxIC6XoOFTM2rj8s1kV-1" target="qIxIC6XoOFTM2rj8s1kV-2" edge="1">
          <mxGeometry relative="1" as="geometry" />
        </mxCell>
        <mxCell id="qIxIC6XoOFTM2rj8s1kV-1" value="odds:&amp;nbsp;`p/(1-p)`" style="whiteSpace=wrap;html=1;fontSize=16;fillColor=#dae8fc;strokeColor=#6c8ebf;" parent="1" vertex="1">
          <mxGeometry x="1205" y="600" width="240" height="50" as="geometry" />
        </mxCell>
        <mxCell id="qIxIC6XoOFTM2rj8s1kV-6" style="edgeStyle=orthogonalEdgeStyle;rounded=0;orthogonalLoop=1;jettySize=auto;html=1;entryX=0.5;entryY=0;entryDx=0;entryDy=0;endArrow=blockThin;endFill=1;" parent="1" source="qIxIC6XoOFTM2rj8s1kV-2" target="qIxIC6XoOFTM2rj8s1kV-3" edge="1">
          <mxGeometry relative="1" as="geometry" />
        </mxCell>
        <mxCell id="qIxIC6XoOFTM2rj8s1kV-2" value="logit:&amp;nbsp;`log(p/(1-p))`" style="whiteSpace=wrap;html=1;fontSize=16;fillColor=#dae8fc;strokeColor=#6c8ebf;" parent="1" vertex="1">
          <mxGeometry x="1205" y="680" width="240" height="50" as="geometry" />
        </mxCell>
        <mxCell id="qIxIC6XoOFTM2rj8s1kV-7" style="edgeStyle=orthogonalEdgeStyle;rounded=0;orthogonalLoop=1;jettySize=auto;html=1;entryX=0.5;entryY=1;entryDx=0;entryDy=0;exitX=0.5;exitY=1;exitDx=0;exitDy=0;endArrow=blockThin;endFill=1;" parent="1" source="qIxIC6XoOFTM2rj8s1kV-3" target="WKKPIDza1_U7zghBaNiP-110" edge="1">
          <mxGeometry relative="1" as="geometry" />
        </mxCell>
        <mxCell id="qIxIC6XoOFTM2rj8s1kV-3" value="`log(p/(1-p))=sum_(i=0)^m(omega_i*x_i)`" style="whiteSpace=wrap;html=1;fontSize=16;fillColor=#dae8fc;strokeColor=#6c8ebf;" parent="1" vertex="1">
          <mxGeometry x="1205" y="760" width="240" height="50" as="geometry" />
        </mxCell>
      </root>
    </mxGraphModel>
  </diagram>
</mxfile>
